<svg xmlns="http://www.w3.org/2000/svg" width="220" height="220" viewBox="0 0 220 220" role="img" aria-labelledby="title desc">
  <title id="title">QR Code Pix</title>
  <desc id="desc">Representacao visual de QR Code para pagamento Pix.</desc>
  <rect width="220" height="220" fill="#ffffff"/>
  <rect x="8" y="8" width="204" height="204" fill="#ffffff" stroke="#111827" stroke-width="4"/>
  <g fill="#111827">
    <rect x="22" y="22" width="48" height="48"/>
    <rect x="34" y="34" width="24" height="24" fill="#ffffff"/>
    <rect x="150" y="22" width="48" height="48"/>
    <rect x="162" y="34" width="24" height="24" fill="#ffffff"/>
    <rect x="22" y="150" width="48" height="48"/>
    <rect x="34" y="162" width="24" height="24" fill="#ffffff"/>
    <rect x="88" y="22" width="12" height="12"/>
    <rect x="112" y="22" width="24" height="12"/>
    <rect x="82" y="46" width="12" height="24"/>
    <rect x="106" y="46" width="36" height="12"/>
    <rect x="82" y="82" width="24" height="12"/>
    <rect x="118" y="82" width="12" height="24"/>
    <rect x="142" y="82" width="36" height="12"/>
    <rect x="190" y="82" width="12" height="24"/>
    <rect x="82" y="118" width="12" height="36"/>
    <rect x="106" y="118" width="24" height="12"/>
    <rect x="142" y="118" width="12" height="24"/>
    <rect x="166" y="118" width="36" height="12"/>
    <rect x="94" y="154" width="24" height="12"/>
    <rect x="130" y="154" width="12" height="36"/>
    <rect x="154" y="154" width="12" height="12"/>
    <rect x="178" y="154" width="24" height="12"/>
    <rect x="82" y="178" width="12" height="24"/>
    <rect x="106" y="190" width="12" height="12"/>
    <rect x="154" y="178" width="48" height="24"/>
  </g>
</svg>
